<svg xmlns="http://www.w3.org/2000/svg" version="1.1" id="svg" viewBox="83.2 179.20000000000002 604.8 465.59999999999997" style="max-height: 500px" width="604.8" height="465.59999999999997"><path fill-rule="evenodd" fill="#e0f2fe" stroke="none" d="M294.360 185.000 C 290.770 186.433,288.774 191.727,288.245 201.219 C 287.872 207.900,288.147 210.910,289.421 214.094 C 291.597 219.534,290.653 220.248,287.055 215.883 C 284.026 212.208,273.607 204.826,266.073 201.017 C 260.099 197.997,245.129 193.255,237.217 191.877 C 233.199 191.178,224.304 190.955,213.633 191.286 C 199.271 191.733,195.045 192.236,187.500 194.397 C 158.288 202.766,132.110 224.989,117.657 253.687 C 115.719 257.536,112.923 265.594,111.444 271.593 C 109.053 281.293,108.757 284.382,108.774 299.500 C 108.799 323.231,112.108 337.110,121.603 353.311 C 125.581 360.099,125.474 361.113,120.128 367.201 C 105.058 384.366,94.090 407.032,90.225 429.000 C 87.164 446.401,88.639 475.623,93.144 486.813 L 95.283 492.126 92.982 495.238 C 89.864 499.455,89.819 508.533,92.895 512.852 C 94.053 514.478,95.000 516.107,95.000 516.471 C 95.000 516.835,96.227 518.743,97.728 520.710 C 100.572 524.439,100.674 525.271,99.915 538.500 C 99.162 551.628,105.865 563.538,118.118 570.843 C 121.079 572.608,123.311 573.000,130.400 573.000 C 140.089 573.000,143.686 571.869,150.944 566.541 L 155.671 563.071 162.586 566.418 C 166.389 568.259,171.975 570.461,175.000 571.312 C 178.025 572.162,183.200 573.677,186.500 574.679 C 191.518 576.202,196.463 576.525,216.723 576.653 C 239.099 576.794,241.624 576.630,249.825 574.493 C 267.540 569.878,279.914 564.350,286.250 558.221 C 288.313 556.226,290.032 555.023,290.071 555.547 C 290.109 556.071,290.082 559.931,290.010 564.124 C 289.894 570.896,290.156 572.070,292.353 574.624 L 294.827 577.500 334.001 577.500 C 372.605 577.500,373.201 577.469,374.879 575.398 C 377.467 572.202,379.641 553.472,378.000 548.500 C 377.160 545.955,377.004 542.873,377.526 539.106 C 377.953 536.023,378.260 531.475,378.209 529.000 C 378.159 526.525,377.879 506.950,377.588 485.500 C 377.298 464.050,376.839 442.900,376.569 438.500 C 376.120 431.181,376.208 430.670,377.601 432.500 C 378.439 433.600,379.367 435.686,379.664 437.135 C 379.961 438.585,382.622 442.860,385.576 446.635 C 388.531 450.411,392.590 455.975,394.596 459.000 C 396.602 462.025,398.751 464.950,399.372 465.500 C 399.992 466.050,402.181 468.975,404.236 472.000 C 406.291 475.025,410.230 480.650,412.988 484.500 C 415.746 488.350,419.511 493.750,421.354 496.500 C 423.196 499.250,425.820 502.625,427.184 504.000 C 429.768 506.604,433.410 511.617,446.000 529.901 C 457.353 546.387,473.766 567.804,475.938 568.967 C 479.156 570.689,482.957 570.144,485.295 567.626 C 487.395 565.364,493.268 557.595,510.802 533.884 C 515.120 528.046,519.888 521.161,521.397 518.585 C 523.879 514.350,530.235 505.444,536.446 497.500 C 540.240 492.647,551.071 477.766,556.952 469.325 C 559.950 465.021,564.044 459.475,566.050 457.000 C 571.662 450.074,576.577 442.769,579.488 437.023 C 580.944 434.151,582.369 432.036,582.656 432.323 C 582.943 432.610,582.647 435.242,581.998 438.172 C 581.177 441.878,581.014 449.590,581.462 463.500 C 582.236 487.557,582.238 500.322,581.470 538.959 C 580.939 565.674,581.048 568.781,582.639 572.309 C 583.613 574.468,585.448 576.600,586.762 577.100 C 590.331 578.457,661.628 578.258,664.316 576.883 C 665.517 576.269,667.277 574.806,668.228 573.633 C 669.845 571.637,669.957 563.163,669.978 441.496 L 670.000 311.492 674.792 305.496 C 682.959 295.279,684.553 287.383,681.050 274.500 C 678.627 265.591,672.993 249.724,670.791 245.609 C 670.040 244.207,669.753 234.799,669.903 216.515 L 670.124 189.493 667.127 186.622 C 660.882 180.639,656.330 184.728,638.650 212.202 C 633.627 220.009,632.610 221.032,628.775 222.142 C 621.525 224.239,616.542 229.427,615.826 235.623 C 615.555 237.974,614.745 238.704,611.000 239.976 C 607.103 241.299,606.124 242.240,603.692 247.002 C 601.400 251.492,600.999 253.284,601.508 256.776 C 602.226 261.709,601.208 263.703,591.515 276.343 C 588.207 280.657,581.675 289.672,577.000 296.375 C 572.325 303.079,565.575 312.370,562.000 317.020 C 558.425 321.671,554.273 327.282,552.774 329.488 C 551.275 331.695,547.675 336.714,544.774 340.642 C 541.873 344.570,536.131 352.445,532.014 358.142 C 527.897 363.839,523.172 370.375,521.514 372.667 C 519.856 374.958,515.016 381.708,510.758 387.667 C 496.344 407.838,492.950 412.442,490.631 414.974 C 489.359 416.363,487.375 419.083,486.222 421.017 C 485.068 422.951,483.030 425.563,481.691 426.820 L 479.257 429.107 473.487 421.303 C 470.314 417.012,466.502 411.925,465.018 410.000 C 463.533 408.075,459.680 402.675,456.454 398.000 C 453.229 393.325,447.870 385.888,444.545 381.474 C 437.477 372.089,436.832 371.197,429.033 360.000 C 425.776 355.325,420.455 347.900,417.208 343.500 C 413.961 339.100,409.099 332.411,406.402 328.636 C 403.706 324.861,399.460 319.236,396.966 316.136 C 394.472 313.036,389.992 306.900,387.010 302.500 C 382.471 295.803,372.003 281.723,367.307 276.000 C 364.195 272.207,356.219 261.110,354.011 257.500 C 352.665 255.300,348.400 249.339,344.532 244.254 C 340.664 239.169,335.609 232.419,333.299 229.254 C 330.988 226.089,324.576 217.307,319.049 209.738 C 313.522 202.170,309.000 195.632,309.000 195.211 C 309.000 193.714,300.467 185.120,298.500 184.637 C 297.400 184.367,295.537 184.530,294.360 185.000 M663.363 220.197 L 663.500 247.500 667.240 253.787 C 669.297 257.245,671.273 261.295,671.631 262.787 L 672.282 265.500 669.827 263.250 C 668.476 262.012,666.950 260.997,666.436 260.994 C 665.349 260.987,656.077 250.796,654.285 247.640 C 652.053 243.707,653.222 237.315,655.500 241.000 C 656.632 242.832,658.000 242.031,658.000 239.535 C 658.000 236.781,655.483 235.000,651.591 235.000 C 649.786 235.000,648.607 234.141,647.515 232.030 C 645.476 228.085,642.620 226.548,640.987 228.516 C 640.004 229.700,640.131 230.508,641.632 232.620 C 646.111 238.926,646.799 240.426,647.444 245.288 C 648.194 250.947,651.329 254.691,660.720 261.150 C 670.570 267.924,676.000 276.035,676.000 283.973 C 676.000 288.982,672.217 297.363,667.385 303.061 C 655.143 317.494,638.206 318.935,625.496 306.624 C 622.495 303.718,619.333 299.576,618.469 297.420 C 617.605 295.264,616.162 292.071,615.262 290.324 C 613.729 287.350,613.745 286.795,615.510 281.601 C 617.295 276.352,617.306 275.864,615.714 272.527 C 612.924 266.676,610.467 268.812,611.628 276.078 L 612.255 279.997 604.790 283.399 C 598.771 286.142,597.066 287.426,595.991 290.022 C 593.993 294.846,582.013 312.678,576.218 319.454 C 571.017 325.537,568.425 330.470,571.829 327.807 C 572.748 327.088,574.096 325.701,574.824 324.725 C 575.552 323.749,577.898 320.824,580.036 318.225 C 582.175 315.626,585.179 311.963,586.712 310.085 C 588.246 308.206,590.041 305.392,590.703 303.831 C 592.827 298.820,599.148 292.126,602.428 291.413 C 604.118 291.045,606.388 290.127,607.473 289.372 C 610.723 287.111,611.484 287.731,612.850 293.750 C 615.389 304.946,624.278 314.753,634.855 318.031 C 642.583 320.425,648.625 320.534,654.021 318.375 C 656.255 317.481,658.250 316.918,658.455 317.125 C 659.440 318.119,657.067 332.383,655.797 333.093 C 654.632 333.746,654.369 341.803,654.227 381.188 C 654.133 407.210,653.779 430.619,653.440 433.210 C 652.710 438.786,653.689 444.310,655.237 443.353 C 656.297 442.698,656.229 443.564,654.480 453.000 C 654.010 455.537,654.114 456.097,654.858 455.034 C 655.910 453.532,656.781 454.988,659.027 462.000 C 659.468 463.375,659.867 430.687,659.914 389.361 C 659.997 316.906,660.068 314.137,661.914 311.861 C 662.967 310.562,664.065 309.736,664.355 310.024 C 664.754 310.421,665.412 547.180,665.067 566.179 C 664.939 573.196,666.090 573.000,624.969 573.000 L 588.080 573.000 586.936 569.179 C 586.117 566.449,585.989 557.104,586.487 536.429 C 587.229 505.562,587.273 499.955,587.117 456.603 C 587.062 441.260,587.300 426.297,587.646 423.353 C 588.487 416.197,586.240 416.083,582.946 423.114 C 581.629 425.927,578.740 430.644,576.526 433.597 C 574.311 436.550,569.350 443.287,565.500 448.568 C 561.650 453.850,557.410 459.527,556.079 461.184 C 554.747 462.841,551.147 467.926,548.079 472.485 C 545.010 477.044,537.269 487.687,530.875 496.137 C 524.481 504.587,517.484 514.425,515.326 518.000 C 511.080 525.031,482.794 563.392,481.068 564.458 C 479.308 565.546,477.188 563.711,471.726 556.373 C 468.852 552.512,463.305 545.094,459.399 539.889 C 455.494 534.685,451.715 529.318,451.003 527.963 C 449.744 525.571,437.712 508.868,428.195 496.301 C 425.613 492.891,418.775 483.286,413.000 474.955 C 407.225 466.624,399.978 456.571,396.896 452.615 C 390.400 444.278,379.402 428.387,376.498 423.142 C 375.397 421.154,373.672 419.368,372.665 419.174 C 371.017 418.857,370.894 419.355,371.433 424.161 C 371.762 427.097,372.137 461.042,372.266 499.593 C 372.460 557.788,372.267 569.968,371.128 571.343 C 369.895 572.831,365.993 573.000,332.937 573.000 C 306.062 573.000,295.924 572.686,295.400 571.839 C 294.333 570.112,294.887 546.713,296.022 545.578 C 296.659 544.941,297.000 545.018,297.000 545.800 C 297.000 548.518,300.138 546.590,307.311 539.463 C 319.818 527.037,332.847 506.603,338.255 490.935 C 342.939 477.363,344.444 467.068,344.312 449.500 C 344.216 436.682,343.762 431.810,342.031 425.000 C 338.662 411.747,338.673 411.673,344.133 410.876 C 346.681 410.504,349.929 409.437,351.351 408.506 C 354.394 406.512,371.074 400.497,379.155 398.479 C 384.282 397.199,390.010 395.168,403.000 390.025 C 405.475 389.045,409.300 387.942,411.500 387.574 C 418.551 386.394,428.001 382.630,427.985 381.009 C 427.943 376.886,426.617 376.828,415.416 380.459 C 409.412 382.406,404.086 383.999,403.581 383.999 C 403.075 384.000,398.350 385.548,393.081 387.441 C 387.811 389.334,377.161 392.887,369.414 395.339 C 361.666 397.790,353.341 400.773,350.914 401.968 C 344.202 405.272,335.931 408.265,335.288 407.622 C 334.973 407.306,335.278 406.370,335.965 405.542 C 336.996 404.300,336.413 402.386,332.643 394.637 C 330.129 389.467,327.009 383.947,325.710 382.369 C 324.411 380.791,321.836 377.250,319.986 374.500 C 318.137 371.750,314.908 367.446,312.812 364.936 C 310.715 362.425,309.001 359.950,309.003 359.436 C 309.004 358.921,310.578 355.892,312.500 352.705 C 316.038 346.836,321.799 330.478,324.192 319.500 C 327.173 305.825,325.361 279.718,320.306 263.500 C 316.901 252.577,307.058 235.579,302.354 232.496 C 297.314 229.194,295.954 224.221,295.718 208.226 C 295.557 197.330,295.812 193.500,296.698 193.500 C 297.357 193.500,300.282 196.977,303.198 201.226 C 311.240 212.945,331.299 240.614,337.469 248.500 C 340.482 252.350,345.363 259.100,348.317 263.500 C 351.270 267.900,358.595 278.042,364.593 286.038 C 370.592 294.034,377.300 303.142,379.500 306.277 C 381.700 309.412,385.750 315.059,388.500 318.825 C 391.250 322.592,396.200 329.406,399.500 333.968 C 402.800 338.530,407.564 344.794,410.086 347.890 C 412.608 350.985,415.261 354.619,415.982 355.966 C 417.812 359.386,427.185 372.072,434.477 381.000 C 440.824 388.770,448.395 399.183,453.375 406.992 C 454.956 409.472,457.656 413.076,459.375 415.003 C 461.094 416.930,466.100 423.555,470.500 429.727 C 474.900 435.898,478.965 440.960,479.533 440.974 C 480.101 440.988,483.679 436.613,487.483 431.250 C 491.288 425.887,497.064 418.141,500.319 414.035 C 503.574 409.930,508.953 402.505,512.272 397.535 C 515.590 392.566,520.251 386.025,522.629 383.000 C 529.369 374.426,539.508 360.706,542.649 355.909 C 545.583 351.429,563.052 327.533,571.826 316.000 C 574.545 312.425,580.245 304.325,584.493 298.000 C 588.740 291.675,594.137 284.475,596.485 282.000 C 603.419 274.693,608.158 267.048,607.595 264.077 C 605.688 254.003,605.746 253.211,608.669 249.548 C 610.966 246.670,612.388 245.885,616.232 245.375 C 622.184 244.585,623.416 243.141,622.699 237.796 C 622.391 235.494,622.570 232.803,623.099 231.816 C 624.434 229.320,629.277 227.000,633.149 227.000 C 635.762 227.000,637.332 226.005,641.169 221.918 C 643.794 219.123,646.967 215.103,648.220 212.984 C 652.573 205.631,662.247 191.913,662.735 192.402 C 663.005 192.672,663.288 205.180,663.363 220.197 M242.248 199.461 C 253.483 202.417,264.082 207.215,273.952 213.812 C 284.610 220.937,297.932 233.266,302.524 240.255 C 304.058 242.590,306.065 245.625,306.984 247.000 C 315.522 259.768,319.911 277.487,319.964 299.396 C 320.017 321.284,316.246 336.078,306.786 351.100 C 304.154 355.280,302.000 359.115,302.000 359.623 C 302.000 360.131,304.259 363.011,307.021 366.023 C 312.137 371.605,325.157 390.664,328.182 397.000 C 334.229 409.668,334.341 408.977,325.734 412.002 C 315.954 415.440,309.626 418.553,295.358 426.948 C 278.594 436.812,269.619 443.027,269.231 445.039 C 269.072 445.864,269.518 447.306,270.221 448.244 C 271.385 449.796,272.222 449.422,279.500 444.101 C 283.900 440.885,291.550 435.982,296.500 433.206 C 301.450 430.430,307.300 427.038,309.500 425.668 C 313.131 423.406,318.439 421.058,327.927 417.515 C 329.812 416.812,331.951 415.420,332.681 414.422 C 334.859 411.443,336.014 413.892,338.203 426.135 C 344.423 460.923,337.729 491.462,317.407 521.000 C 312.774 527.734,296.316 544.997,294.521 545.004 C 293.959 545.007,290.800 547.393,287.500 550.307 C 280.883 556.150,273.734 560.741,267.290 563.288 C 246.338 571.568,230.516 573.848,206.000 572.122 C 186.500 570.748,172.555 566.608,154.679 556.885 C 153.223 556.093,152.050 556.626,148.819 559.545 C 140.239 567.296,130.426 569.750,122.500 566.128 C 117.596 563.887,110.583 556.994,107.669 551.551 C 105.730 547.929,105.500 545.965,105.500 533.000 C 105.500 524.316,105.099 518.310,104.500 518.026 C 100.414 516.090,96.000 508.691,96.000 503.777 C 96.000 500.139,98.698 495.947,100.575 496.667 C 102.807 497.524,102.363 491.108,99.912 487.087 C 95.727 480.223,93.805 449.144,96.526 432.358 C 98.476 420.328,103.392 405.028,108.131 396.238 C 112.259 388.581,122.903 373.370,129.041 366.356 C 131.768 363.239,134.000 360.376,134.000 359.994 C 134.000 359.613,132.572 357.329,130.826 354.919 C 125.581 347.679,120.387 336.070,117.887 326.000 C 115.844 317.774,115.535 314.153,115.582 299.000 C 115.630 283.304,115.908 280.501,118.275 271.807 C 122.896 254.834,130.351 242.554,144.940 227.891 C 161.767 210.978,181.600 200.564,201.950 197.957 C 211.279 196.762,235.413 197.663,242.248 199.461 M631.250 232.706 C 630.013 232.944,629.000 233.633,629.000 234.238 C 629.000 236.848,631.330 248.653,632.160 250.250 C 633.385 252.604,637.668 252.488,638.965 250.066 C 641.708 244.939,638.761 233.293,635.422 236.065 C 634.334 236.968,633.890 236.878,633.423 235.661 C 633.093 234.800,633.114 233.624,633.470 233.048 C 633.827 232.472,633.979 232.061,633.809 232.136 C 633.639 232.211,632.487 232.467,631.250 232.706 M611.556 252.910 C 610.826 254.090,611.875 256.893,614.159 259.871 C 615.203 261.231,615.758 263.148,615.462 264.371 C 615.069 265.993,615.802 267.077,618.537 268.922 C 620.511 270.255,622.757 272.563,623.526 274.051 C 625.667 278.190,630.000 279.098,630.000 275.408 C 630.000 272.171,624.495 263.186,619.182 257.750 C 613.449 251.884,612.545 251.310,611.556 252.910 M207.000 272.073 C 196.443 276.833,188.749 288.084,188.586 299.000 C 188.424 309.928,193.383 317.880,204.500 324.516 C 209.059 327.237,210.294 327.500,218.500 327.500 C 228.502 327.500,230.265 326.728,238.760 318.627 C 246.240 311.494,248.994 299.208,245.447 288.799 C 243.383 282.741,234.223 273.605,228.133 271.530 C 221.765 269.360,212.488 269.598,207.000 272.073 M230.000 279.828 C 234.759 282.726,239.409 289.708,240.582 295.714 C 241.648 301.174,238.394 309.918,233.636 314.379 C 228.936 318.786,222.263 322.000,217.812 322.000 C 213.925 322.000,205.437 317.756,201.172 313.681 C 194.379 307.189,193.094 298.057,197.773 289.533 C 200.707 284.189,208.723 277.387,212.955 276.650 C 218.211 275.735,225.516 277.097,230.000 279.828 M214.500 402.635 C 213.400 402.857,209.857 403.553,206.627 404.182 C 191.413 407.144,176.952 420.498,171.929 436.224 C 169.270 444.544,169.291 458.551,171.972 466.180 C 177.500 481.907,188.728 492.500,204.517 496.883 C 211.230 498.747,224.944 498.261,232.627 495.888 C 240.659 493.407,245.753 490.114,252.166 483.256 C 260.100 474.770,265.000 461.954,265.000 449.685 C 265.000 443.699,262.286 433.442,258.997 426.994 C 256.217 421.545,246.101 411.286,240.000 407.728 C 232.513 403.362,221.652 401.193,214.500 402.635 M231.191 410.783 C 238.737 413.649,246.407 419.850,250.617 426.491 C 259.980 441.257,261.173 454.731,254.356 468.724 C 248.677 480.382,234.979 491.000,225.619 491.000 C 223.896 491.000,220.979 491.432,219.137 491.961 C 214.896 493.177,205.244 491.068,198.112 487.368 C 191.239 483.803,183.556 475.414,179.788 467.360 C 177.070 461.553,176.669 459.605,176.645 452.102 C 176.580 431.848,186.437 417.788,205.500 410.942 C 212.301 408.499,224.972 408.421,231.191 410.783 M104.103 469.250 C 102.393 473.788,101.886 477.811,102.941 478.464 C 103.524 478.824,104.000 480.216,104.000 481.559 C 104.000 483.365,104.541 484.000,106.082 484.000 C 107.227 484.000,110.152 485.629,112.582 487.620 C 116.235 490.614,117.000 491.832,117.000 494.652 C 117.000 496.743,116.427 498.283,115.518 498.631 C 114.397 499.062,114.284 499.662,115.053 501.100 C 116.129 503.109,119.000 503.729,119.000 501.952 C 119.000 501.376,120.129 499.858,121.510 498.578 C 123.823 496.435,123.959 495.831,123.247 490.884 C 122.618 486.508,122.002 485.288,119.924 484.292 C 116.392 482.599,114.687 480.483,111.031 473.250 C 107.729 466.718,105.534 465.451,104.103 469.250 M658.844 481.750 C 658.557 483.125,658.231 505.176,658.053 535.157 C 657.877 564.780,657.874 564.815,655.688 565.310 C 654.485 565.583,640.563 565.872,624.750 565.953 C 597.212 566.092,596.000 566.019,596.000 564.216 C 596.000 563.181,595.663 561.996,595.250 561.583 C 594.837 561.171,594.452 543.760,594.393 522.893 C 594.335 502.026,593.997 484.664,593.643 484.310 C 593.290 483.956,592.761 483.905,592.469 484.197 C 592.008 484.659,591.908 555.619,592.356 564.971 L 592.523 568.442 622.004 568.798 C 638.219 568.994,653.409 568.866,655.760 568.513 L 660.036 567.872 659.979 524.436 C 659.930 487.256,659.677 477.748,658.844 481.750 M124.496 485.007 C 124.153 485.561,125.364 487.511,127.186 489.340 C 131.010 493.179,134.715 499.018,135.624 502.638 C 135.970 504.017,137.321 505.552,138.627 506.048 C 140.173 506.636,141.000 507.750,141.000 509.245 C 141.000 510.507,142.523 514.681,144.383 518.520 C 147.734 525.433,147.777 525.474,148.859 522.750 C 149.647 520.764,150.652 520.000,152.475 520.000 C 154.616 520.000,155.000 520.458,155.000 523.014 C 155.000 524.671,154.457 526.897,153.793 527.959 C 152.803 529.545,153.005 530.899,154.916 535.511 C 157.144 540.885,157.364 545.578,155.598 550.000 C 154.759 552.100,176.009 562.340,186.500 564.891 C 204.368 569.236,212.775 568.196,196.688 563.630 C 191.590 562.184,186.847 561.000,186.148 561.000 C 184.526 561.000,174.284 556.235,170.991 553.949 C 169.611 552.991,166.568 551.691,164.228 551.061 C 160.490 550.055,160.097 549.687,160.987 548.024 C 162.710 544.805,162.122 540.760,158.959 534.076 C 155.460 526.680,155.472 526.654,164.000 523.079 C 171.398 519.978,170.568 520.500,182.036 511.750 C 188.031 507.176,193.154 504.000,194.538 504.000 C 197.451 504.000,198.003 503.129,196.915 500.250 C 195.366 496.153,191.312 497.355,180.969 504.979 C 169.950 513.100,162.484 517.770,159.094 518.662 C 156.282 519.402,154.489 517.460,152.973 512.031 C 151.548 506.926,148.840 503.919,144.951 503.124 C 141.927 502.505,141.396 501.894,140.198 497.653 C 137.794 489.143,127.208 480.618,124.496 485.007 M511.809 513.292 C 510.374 515.057,506.792 519.361,503.850 522.859 C 500.907 526.356,497.600 530.911,496.500 532.982 C 494.312 537.100,481.289 552.000,479.877 552.000 C 479.395 552.000,479.053 551.663,479.118 551.250 C 479.469 549.027,478.606 548.121,474.715 546.635 C 471.907 545.563,469.786 543.880,468.559 541.750 C 467.530 539.962,465.970 537.742,465.094 536.815 C 464.217 535.889,461.260 531.979,458.521 528.128 C 455.783 524.276,453.387 521.280,453.197 521.469 C 451.902 522.764,463.051 538.129,472.621 548.238 C 476.130 551.944,479.000 555.657,479.000 556.488 C 479.000 557.320,479.339 558.000,479.753 558.000 C 481.076 558.000,506.165 525.086,512.412 515.156 C 515.720 509.896,515.393 508.886,511.809 513.292 M261.500 578.802 C 253.083 579.807,250.093 591.475,256.686 597.585 C 258.504 599.270,260.457 600.000,263.146 600.000 C 265.266 600.000,267.000 600.388,267.000 600.862 C 267.000 601.335,265.200 605.564,263.000 610.259 C 260.800 614.954,259.000 619.542,259.000 620.456 C 259.000 623.656,257.190 620.960,255.995 615.980 C 255.332 613.216,253.462 608.377,251.839 605.227 C 250.217 602.077,247.549 596.302,245.910 592.392 C 241.475 581.808,238.079 579.265,231.714 581.761 C 228.305 583.098,227.751 583.084,226.136 581.623 C 224.841 580.451,222.397 580.000,217.346 580.000 C 211.175 580.000,210.071 580.295,208.000 582.500 C 206.708 583.876,204.942 587.052,204.075 589.560 C 203.209 592.068,202.080 594.205,201.566 594.310 C 201.052 594.414,199.880 592.326,198.962 589.669 C 196.454 582.409,193.464 579.943,186.396 579.303 C 178.922 578.627,175.541 580.800,175.694 586.181 C 175.785 589.381,182.771 608.008,185.566 612.500 C 186.250 613.600,188.257 618.018,190.026 622.318 C 195.380 635.329,199.971 638.686,206.533 634.386 C 208.867 632.857,209.093 632.893,210.849 635.062 C 212.319 636.878,213.974 637.443,218.857 637.796 C 224.999 638.240,225.018 638.233,228.777 634.121 C 233.470 628.987,235.847 628.911,240.411 633.750 L 243.947 637.500 274.224 637.794 C 290.876 637.956,305.504 637.837,306.731 637.530 C 307.958 637.223,310.530 635.403,312.448 633.486 C 316.716 629.218,319.263 629.085,322.143 632.980 C 325.123 637.010,328.547 637.864,341.685 637.856 C 352.133 637.850,353.043 637.690,355.487 635.425 C 358.548 632.588,358.982 632.520,361.559 634.468 C 364.149 636.427,368.919 636.383,371.133 634.379 C 372.797 632.874,373.140 632.940,375.959 635.312 L 378.994 637.866 407.057 637.885 C 422.492 637.896,436.175 637.504,437.462 637.014 C 440.513 635.854,442.420 630.083,441.638 624.375 C 441.167 620.938,441.350 620.000,442.493 620.000 C 443.294 620.000,444.606 621.271,445.410 622.825 C 447.148 626.187,453.677 632.264,457.891 634.443 C 461.976 636.556,465.194 636.399,467.811 633.961 C 469.873 632.040,470.000 631.060,470.000 617.083 C 470.000 605.312,470.301 601.995,471.456 601.036 C 474.407 598.587,475.000 600.991,475.000 615.410 C 475.000 623.400,475.495 631.122,476.123 632.922 C 477.355 636.456,480.206 638.000,485.500 638.000 C 494.724 638.000,496.547 634.275,495.754 617.052 C 495.175 604.485,495.725 600.677,498.186 600.203 C 499.548 599.940,499.767 601.049,499.667 607.697 C 499.512 617.927,502.180 624.136,509.674 630.985 C 515.941 636.713,519.650 637.990,530.000 637.985 C 538.144 637.980,545.689 635.319,549.405 631.142 C 550.453 629.964,551.734 629.000,552.252 629.000 C 552.769 629.000,555.174 630.744,557.595 632.875 C 562.241 636.964,565.332 638.001,572.875 637.998 C 579.250 637.996,583.916 635.373,587.750 629.637 C 591.800 623.577,592.190 616.503,588.853 609.633 L 586.705 605.213 588.853 601.739 C 591.554 597.368,591.554 594.776,588.856 589.202 C 585.987 583.276,579.351 578.996,573.054 579.011 C 564.224 579.032,561.295 580.034,556.636 584.627 L 552.195 589.005 547.952 585.460 C 541.355 579.948,540.226 579.586,529.500 579.541 C 520.218 579.503,519.130 579.712,514.340 582.452 L 509.180 585.405 506.304 582.325 C 503.911 579.764,502.372 579.123,497.155 578.518 C 489.722 577.655,456.207 578.865,453.887 580.079 C 451.228 581.471,449.717 586.576,450.209 592.505 C 450.552 596.643,450.336 598.000,449.332 598.000 C 448.600 598.000,448.000 597.652,448.000 597.226 C 448.000 596.469,438.412 586.320,434.224 582.645 C 429.670 578.648,404.201 576.654,392.000 579.339 C 384.157 581.065,382.454 582.295,377.500 589.809 C 369.945 601.270,367.447 604.500,366.139 604.500 C 364.734 604.500,357.760 595.230,355.528 590.395 C 353.642 586.310,347.515 581.000,344.688 581.000 C 343.454 581.000,341.445 581.701,340.223 582.557 C 338.108 584.038,338.000 584.786,338.000 597.932 C 338.000 612.015,338.614 618.000,340.058 618.000 C 341.541 618.000,341.978 614.585,342.136 601.737 C 342.246 592.740,342.691 588.469,343.646 587.241 C 344.925 585.596,345.083 585.607,346.500 587.441 C 347.325 588.509,348.000 590.170,348.000 591.132 C 348.000 592.095,348.411 593.136,348.912 593.446 C 349.414 593.756,351.643 597.270,353.866 601.255 C 356.090 605.240,359.471 610.300,361.381 612.500 L 364.854 616.500 368.977 612.113 C 371.244 609.700,373.985 606.100,375.068 604.113 C 378.535 597.752,387.619 585.509,389.083 585.224 C 390.279 584.991,390.455 588.502,390.209 607.724 C 390.049 620.251,389.726 631.063,389.491 631.750 C 389.236 632.494,387.295 633.000,384.700 633.000 C 378.872 633.000,377.502 630.598,378.487 622.109 C 378.877 618.749,378.815 616.001,378.348 616.003 C 377.882 616.004,376.150 618.563,374.500 621.689 C 372.850 624.815,370.262 628.276,368.750 629.381 L 366.000 631.391 363.250 629.371 C 361.738 628.260,358.980 624.807,357.122 621.696 C 355.264 618.586,353.295 616.318,352.747 616.656 C 352.142 617.030,352.006 619.755,352.401 623.611 C 352.976 629.224,352.809 630.191,350.939 632.061 C 349.369 633.631,348.144 634.002,346.169 633.506 C 342.043 632.471,341.001 631.089,340.985 626.628 C 340.976 624.357,340.627 621.961,340.208 621.303 C 338.713 618.951,337.447 621.590,337.473 627.000 L 337.500 632.500 333.560 632.822 C 330.065 633.107,329.270 632.726,326.515 629.445 C 323.867 626.291,322.670 625.675,318.393 625.264 C 313.568 624.800,313.227 624.939,309.482 628.891 C 305.867 632.706,305.205 633.000,300.237 633.000 C 294.908 633.000,294.893 632.991,296.443 630.777 C 297.299 629.555,298.000 627.107,298.000 625.337 C 298.000 623.566,298.439 621.847,298.976 621.515 C 300.833 620.367,307.327 607.710,311.489 597.127 C 315.825 586.102,318.110 583.670,319.899 588.179 C 320.405 589.455,322.500 595.134,324.553 600.798 C 328.440 611.517,332.943 619.000,335.506 619.000 C 336.328 619.000,336.993 618.438,336.985 617.750 C 336.959 615.607,332.377 601.766,329.785 596.000 C 328.425 592.975,326.746 589.059,326.055 587.299 C 325.363 585.538,323.734 583.401,322.434 582.549 C 317.340 579.211,312.015 581.520,309.022 588.367 C 308.028 590.640,304.471 598.237,301.116 605.250 L 295.018 618.000 290.009 618.000 C 287.254 618.000,285.000 617.597,285.000 617.104 C 285.000 616.282,286.823 612.151,294.536 595.500 C 301.013 581.515,296.911 577.808,275.422 578.230 C 269.415 578.347,263.150 578.605,261.500 578.802 M189.066 584.035 C 190.130 584.605,191.004 585.617,191.010 586.285 C 191.015 586.953,192.896 590.425,195.189 594.000 C 197.483 597.575,199.433 601.625,199.524 603.000 C 199.614 604.375,199.758 606.737,199.844 608.250 C 199.930 609.763,200.338 611.000,200.752 611.000 C 201.165 611.000,203.252 606.514,205.389 601.031 C 207.525 595.548,210.035 590.373,210.966 589.531 C 211.896 588.689,214.310 588.000,216.329 588.000 C 218.348 588.000,220.000 587.550,220.000 587.000 C 220.000 586.450,218.425 586.000,216.500 586.000 C 212.501 586.000,211.803 584.338,215.421 583.430 C 221.221 581.975,224.486 585.165,221.866 589.726 C 220.989 591.252,219.960 593.850,219.579 595.500 C 218.926 598.325,211.609 614.434,205.954 625.496 C 201.727 633.764,200.000 632.662,193.425 617.500 C 192.232 614.750,189.572 608.675,187.513 604.000 C 178.743 584.087,179.323 585.968,181.472 584.397 C 183.739 582.739,186.406 582.612,189.066 584.035 M291.870 584.732 C 292.543 585.934,292.404 587.234,291.416 588.982 C 289.884 591.692,281.992 609.517,278.929 617.184 L 277.058 621.869 279.670 621.684 C 281.130 621.581,282.496 622.109,282.768 622.882 C 283.136 623.926,282.482 624.151,280.100 623.801 C 278.109 623.509,277.078 623.737,277.303 624.419 C 277.774 625.846,291.000 626.451,291.000 625.046 C 291.000 624.471,291.950 624.000,293.111 624.000 C 295.007 624.000,295.152 624.383,294.533 627.750 C 294.154 629.813,293.542 631.800,293.172 632.167 C 292.543 632.791,275.512 633.354,264.671 633.109 L 259.841 633.000 260.537 629.750 C 260.920 627.962,262.601 623.800,264.272 620.500 C 274.260 600.776,276.043 596.879,275.493 595.988 C 275.157 595.445,272.020 595.000,268.523 595.000 C 260.290 595.000,259.000 594.444,259.000 590.893 L 259.000 588.000 274.559 588.000 C 284.677 588.000,289.902 587.650,289.500 587.000 C 289.132 586.405,282.782 586.000,273.819 586.000 C 260.542 586.000,258.903 585.822,260.000 584.500 C 261.004 583.290,264.112 583.000,276.073 583.000 C 289.096 583.000,291.019 583.211,291.870 584.732 M578.785 586.073 C 583.727 589.708,586.383 596.098,583.921 598.436 C 581.046 601.166,578.358 601.172,575.129 598.455 C 571.580 595.469,568.639 595.550,568.196 598.645 C 567.955 600.321,568.903 601.246,572.696 603.035 C 578.542 605.793,582.000 608.773,582.000 611.052 C 582.000 611.989,582.646 613.291,583.436 613.947 C 587.748 617.526,584.954 628.421,578.924 631.539 C 573.885 634.145,565.802 633.137,561.892 629.416 C 555.053 622.907,555.798 620.754,564.995 620.454 C 571.412 620.244,572.988 621.105,570.868 623.659 C 569.752 625.004,569.842 625.177,571.492 624.859 C 572.759 624.615,573.660 623.319,574.117 621.083 C 575.056 616.492,574.404 615.241,570.666 614.463 C 568.152 613.940,560.074 610.027,558.111 608.381 C 557.896 608.201,557.113 605.712,556.371 602.848 C 555.079 597.868,555.129 597.456,557.525 593.367 C 561.031 587.384,563.243 586.034,567.805 587.094 C 572.819 588.259,576.252 588.217,575.500 587.000 C 575.160 586.450,572.771 585.986,570.191 585.968 C 565.849 585.939,565.644 585.827,567.441 584.468 C 570.458 582.186,574.224 582.719,578.785 586.073 M531.559 585.532 C 529.692 586.944,529.718 587.000,532.226 587.000 C 538.796 587.000,548.546 593.417,551.530 599.704 C 559.123 615.706,547.765 633.000,529.662 633.000 C 521.388 633.000,517.483 631.293,511.761 625.175 C 501.195 613.879,501.483 602.924,512.607 593.101 C 518.089 588.259,520.699 587.000,525.256 587.000 C 528.220 587.000,528.281 586.924,526.441 585.532 C 524.642 584.171,524.829 584.064,529.000 584.064 C 533.171 584.064,533.358 584.171,531.559 585.532 M236.710 587.250 C 237.235 587.938,238.262 590.075,238.991 592.000 C 239.720 593.925,243.368 601.800,247.097 609.500 C 251.712 619.031,253.976 624.936,254.188 628.000 L 254.500 632.500 250.766 632.809 C 247.515 633.079,246.534 632.594,243.171 629.059 C 239.739 625.451,238.794 625.000,234.667 625.000 C 230.545 625.000,229.602 625.448,226.262 628.998 C 220.170 635.473,212.970 634.119,214.518 626.791 C 215.134 623.878,221.658 608.985,224.065 605.000 C 224.563 604.175,226.596 600.125,228.583 596.000 C 232.364 588.149,233.743 586.000,235.000 586.000 C 235.415 586.000,236.185 586.563,236.710 587.250 M502.295 590.515 C 502.027 594.083,502.009 594.095,495.815 594.851 L 490.500 595.500 490.000 614.000 L 489.500 632.500 485.914 632.801 C 483.765 632.981,481.872 632.551,481.189 631.727 C 480.457 630.846,479.950 624.113,479.774 612.927 L 479.500 595.500 474.500 595.000 C 469.722 594.522,469.486 594.357,469.189 591.282 L 468.878 588.065 480.689 587.733 C 487.185 587.550,494.750 587.488,497.500 587.594 C 502.287 587.778,502.491 587.903,502.295 590.515 M419.308 588.620 C 421.648 589.090,422.064 589.626,421.808 591.842 C 421.509 594.424,421.270 594.514,413.500 595.000 L 405.500 595.500 405.200 601.250 C 405.035 604.413,405.035 607.030,405.200 607.066 C 405.365 607.102,408.200 607.356,411.500 607.630 C 418.710 608.230,419.879 609.121,417.100 611.900 C 415.602 613.398,413.737 614.000,410.594 614.000 L 406.188 614.000 405.506 618.954 C 405.132 621.679,405.116 624.379,405.472 624.954 C 405.827 625.529,409.418 626.000,413.451 626.000 C 420.545 626.000,420.805 626.086,421.447 628.645 C 421.812 630.099,421.748 631.647,421.305 632.083 C 420.020 633.350,395.083 633.483,393.830 632.230 C 392.192 630.592,393.189 590.119,394.894 589.066 C 396.392 588.140,415.209 587.796,419.308 588.620 M464.390 593.750 C 465.569 605.315,465.544 628.849,464.351 630.046 C 462.549 631.853,459.838 630.425,454.466 624.836 C 444.901 614.886,438.491 609.035,437.500 609.347 C 436.936 609.525,436.381 614.427,436.228 620.581 C 435.919 632.966,435.313 634.061,429.312 633.086 C 425.928 632.536,425.508 632.113,424.745 628.490 C 422.749 619.019,425.437 589.000,428.281 589.000 C 429.270 589.000,444.928 603.516,449.618 608.781 C 451.333 610.706,453.223 611.980,453.819 611.612 C 454.478 611.204,454.906 607.007,454.913 600.869 C 454.927 589.590,455.620 588.000,460.524 588.000 C 463.782 588.000,463.808 588.038,464.390 593.750 M525.199 594.201 C 522.099 594.876,520.650 595.789,520.011 597.472 C 519.523 598.755,518.672 600.085,518.119 600.426 C 515.102 602.291,516.327 618.367,519.700 621.166 C 520.633 621.940,521.000 621.934,521.000 621.144 C 521.000 620.353,521.703 620.363,523.500 621.182 C 526.239 622.430,526.685 623.557,524.750 624.338 C 524.063 624.615,525.623 624.878,528.219 624.921 C 531.962 624.984,532.822 624.699,532.378 623.542 C 531.996 622.547,532.721 621.869,534.659 621.408 C 538.791 620.424,540.611 618.462,542.003 613.490 C 543.713 607.380,542.610 602.912,538.223 598.184 C 534.022 593.656,531.393 592.852,525.199 594.201 M231.101 603.510 C 229.344 605.955,227.078 610.367,226.064 613.315 C 225.050 616.263,223.495 620.075,222.610 621.788 C 220.360 626.138,220.597 626.727,223.500 624.000 C 224.875 622.708,226.000 621.041,226.000 620.294 C 226.000 619.548,226.666 618.682,227.479 618.370 C 228.293 618.057,229.948 615.821,231.157 613.401 C 233.828 608.053,236.384 607.618,237.930 612.250 C 238.527 614.038,240.474 617.366,242.257 619.646 C 244.041 621.926,246.084 624.626,246.798 625.646 C 248.033 627.410,248.062 627.403,247.405 625.500 C 247.024 624.400,246.064 621.475,245.271 619.000 C 242.752 611.141,240.813 607.173,238.373 604.881 C 237.068 603.655,236.000 602.081,236.000 601.385 C 236.000 598.505,234.104 599.327,231.101 603.510 M535.750 603.555 C 538.823 607.047,538.598 610.555,535.077 614.077 C 529.327 619.827,522.000 616.720,522.000 608.534 C 522.000 604.943,522.497 603.754,524.734 601.994 C 528.160 599.300,532.553 599.922,535.750 603.555"/></svg>