<svg width="337" height="384" viewBox="0 0 337 384" fill="none" xmlns="http://www.w3.org/2000/svg">
<rect x="25.7252" y="33.4427" width="300.985" height="339.573" rx="24" fill="#121212"/>
<path d="M111.353 317.737C110.932 317.737 110.571 317.587 110.27 317.286C109.969 316.985 109.819 316.624 109.819 316.203C109.819 315.783 109.969 315.422 110.27 315.121C110.571 314.82 110.932 314.669 111.353 314.669C111.773 314.669 112.134 314.82 112.435 315.121C112.736 315.422 112.887 315.783 112.887 316.203C112.887 316.482 112.816 316.737 112.674 316.97C112.537 317.203 112.353 317.391 112.12 317.533C111.892 317.669 111.637 317.737 111.353 317.737ZM122.564 308.26V306.385H135.655V308.26H130.167V323.84H128.053V308.26H122.564ZM145.113 318.487V310.749H147.125V323.84H145.113V321.624H144.977C144.67 322.289 144.193 322.854 143.545 323.32C142.897 323.78 142.079 324.01 141.091 324.01C140.272 324.01 139.545 323.831 138.909 323.473C138.272 323.11 137.772 322.564 137.409 321.837C137.045 321.104 136.863 320.181 136.863 319.067V310.749H138.875V318.931C138.875 319.885 139.142 320.646 139.676 321.215C140.216 321.783 140.903 322.067 141.738 322.067C142.238 322.067 142.747 321.939 143.264 321.683C143.787 321.428 144.224 321.036 144.576 320.507C144.934 319.979 145.113 319.306 145.113 318.487ZM156.502 310.749V312.453H149.718V310.749H156.502ZM151.695 307.612H153.706V320.09C153.706 320.658 153.789 321.084 153.953 321.368C154.124 321.646 154.34 321.834 154.601 321.931C154.868 322.021 155.149 322.067 155.445 322.067C155.667 322.067 155.848 322.056 155.99 322.033C156.132 322.004 156.246 321.982 156.331 321.965L156.74 323.771C156.604 323.823 156.414 323.874 156.169 323.925C155.925 323.982 155.615 324.01 155.24 324.01C154.672 324.01 154.115 323.888 153.57 323.644C153.03 323.399 152.581 323.027 152.223 322.527C151.871 322.027 151.695 321.396 151.695 320.635V307.612ZM164.705 324.112C163.523 324.112 162.486 323.831 161.594 323.269C160.708 322.706 160.015 321.919 159.515 320.908C159.02 319.896 158.773 318.715 158.773 317.362C158.773 315.999 159.02 314.808 159.515 313.791C160.015 312.774 160.708 311.985 161.594 311.422C162.486 310.86 163.523 310.578 164.705 310.578C165.887 310.578 166.921 310.86 167.807 311.422C168.699 311.985 169.392 312.774 169.887 313.791C170.387 314.808 170.637 315.999 170.637 317.362C170.637 318.715 170.387 319.896 169.887 320.908C169.392 321.919 168.699 322.706 167.807 323.269C166.921 323.831 165.887 324.112 164.705 324.112ZM164.705 322.306C165.603 322.306 166.341 322.075 166.921 321.615C167.5 321.155 167.929 320.55 168.208 319.8C168.486 319.05 168.625 318.237 168.625 317.362C168.625 316.487 168.486 315.672 168.208 314.916C167.929 314.161 167.5 313.55 166.921 313.084C166.341 312.618 165.603 312.385 164.705 312.385C163.807 312.385 163.069 312.618 162.489 313.084C161.909 313.55 161.48 314.161 161.202 314.916C160.924 315.672 160.784 316.487 160.784 317.362C160.784 318.237 160.924 319.05 161.202 319.8C161.48 320.55 161.909 321.155 162.489 321.615C163.069 322.075 163.807 322.306 164.705 322.306ZM173.707 323.84V310.749H175.65V312.726H175.787C176.025 312.078 176.457 311.553 177.082 311.149C177.707 310.746 178.412 310.544 179.196 310.544C179.343 310.544 179.528 310.547 179.75 310.553C179.971 310.558 180.139 310.567 180.252 310.578V312.624C180.184 312.607 180.028 312.581 179.784 312.547C179.545 312.507 179.292 312.487 179.025 312.487C178.389 312.487 177.821 312.621 177.321 312.888C176.826 313.149 176.434 313.513 176.145 313.979C175.86 314.439 175.718 314.965 175.718 315.556V323.84H173.707ZM182.637 323.84V310.749H184.648V323.84H182.637ZM183.659 308.567C183.267 308.567 182.929 308.433 182.645 308.166C182.367 307.899 182.228 307.578 182.228 307.203C182.228 306.828 182.367 306.507 182.645 306.24C182.929 305.973 183.267 305.84 183.659 305.84C184.051 305.84 184.387 305.973 184.665 306.24C184.949 306.507 185.091 306.828 185.091 307.203C185.091 307.578 184.949 307.899 184.665 308.166C184.387 308.433 184.051 308.567 183.659 308.567ZM192.184 324.146C191.355 324.146 190.602 323.99 189.926 323.678C189.25 323.36 188.713 322.902 188.315 322.306C187.917 321.703 187.718 320.976 187.718 320.124C187.718 319.374 187.866 318.766 188.162 318.3C188.457 317.828 188.852 317.459 189.346 317.192C189.841 316.925 190.386 316.726 190.983 316.595C191.585 316.459 192.19 316.351 192.798 316.271C193.593 316.169 194.238 316.093 194.733 316.041C195.233 315.985 195.596 315.891 195.823 315.76C196.056 315.629 196.173 315.402 196.173 315.078V315.01C196.173 314.169 195.943 313.516 195.483 313.05C195.028 312.584 194.338 312.351 193.412 312.351C192.451 312.351 191.698 312.561 191.153 312.982C190.608 313.402 190.224 313.851 190.002 314.328L188.093 313.646C188.434 312.851 188.889 312.232 189.457 311.789C190.031 311.34 190.656 311.027 191.332 310.851C192.014 310.669 192.684 310.578 193.343 310.578C193.764 310.578 194.247 310.629 194.792 310.732C195.343 310.828 195.875 311.03 196.386 311.337C196.903 311.644 197.332 312.107 197.673 312.726C198.014 313.345 198.184 314.175 198.184 315.215V323.84H196.173V322.067H196.071C195.934 322.351 195.707 322.655 195.389 322.979C195.071 323.303 194.647 323.578 194.119 323.806C193.591 324.033 192.946 324.146 192.184 324.146ZM192.491 322.34C193.287 322.34 193.957 322.183 194.502 321.871C195.054 321.558 195.468 321.155 195.747 320.661C196.031 320.166 196.173 319.646 196.173 319.101V317.26C196.088 317.362 195.9 317.456 195.61 317.541C195.326 317.621 194.997 317.692 194.622 317.754C194.252 317.811 193.892 317.862 193.539 317.908C193.193 317.948 192.912 317.982 192.696 318.01C192.173 318.078 191.684 318.189 191.23 318.343C190.781 318.49 190.417 318.715 190.139 319.016C189.866 319.311 189.73 319.715 189.73 320.226C189.73 320.925 189.988 321.453 190.505 321.811C191.028 322.164 191.69 322.34 192.491 322.34ZM201.855 323.84V310.749H203.867V323.84H201.855ZM202.878 308.567C202.486 308.567 202.148 308.433 201.864 308.166C201.586 307.899 201.446 307.578 201.446 307.203C201.446 306.828 201.586 306.507 201.864 306.24C202.148 305.973 202.486 305.84 202.878 305.84C203.27 305.84 203.605 305.973 203.884 306.24C204.168 306.507 204.31 306.828 204.31 307.203C204.31 307.578 204.168 307.899 203.884 308.166C203.605 308.433 203.27 308.567 202.878 308.567ZM216.823 313.681L215.017 314.192C214.903 313.891 214.735 313.598 214.514 313.314C214.298 313.024 214.002 312.786 213.627 312.598C213.252 312.411 212.772 312.317 212.187 312.317C211.386 312.317 210.718 312.502 210.184 312.871C209.656 313.235 209.392 313.698 209.392 314.26C209.392 314.76 209.573 315.155 209.937 315.445C210.301 315.735 210.869 315.976 211.642 316.169L213.585 316.646C214.755 316.931 215.627 317.365 216.201 317.95C216.775 318.53 217.062 319.277 217.062 320.192C217.062 320.942 216.846 321.612 216.414 322.203C215.988 322.794 215.392 323.26 214.625 323.601C213.858 323.942 212.966 324.112 211.948 324.112C210.613 324.112 209.508 323.823 208.633 323.243C207.758 322.664 207.204 321.817 206.971 320.703L208.88 320.226C209.062 320.931 209.406 321.459 209.912 321.811C210.423 322.164 211.091 322.34 211.914 322.34C212.852 322.34 213.596 322.141 214.147 321.743C214.704 321.34 214.983 320.857 214.983 320.294C214.983 319.84 214.823 319.459 214.505 319.152C214.187 318.84 213.698 318.607 213.039 318.453L210.858 317.942C209.659 317.658 208.778 317.218 208.216 316.621C207.659 316.019 207.38 315.266 207.38 314.362C207.38 313.624 207.588 312.97 208.002 312.402C208.423 311.834 208.994 311.388 209.716 311.064C210.443 310.74 211.267 310.578 212.187 310.578C213.483 310.578 214.5 310.862 215.238 311.431C215.983 311.999 216.511 312.749 216.823 313.681Z" fill="#929292"/>
<path d="M92.4392 316.42V321.908C92.4392 322.272 92.2946 322.621 92.0373 322.878C91.78 323.135 91.431 323.28 91.0672 323.28C90.7033 323.28 90.3543 323.135 90.097 322.878C89.8397 322.621 89.6952 322.272 89.6952 321.908C89.6952 321.908 89.8598 320.536 86.9511 320.536H84.2071V327.396C84.2071 327.76 84.0626 328.109 83.8053 328.366C83.548 328.623 83.199 328.768 82.8351 328.768H60.8829C60.5191 328.768 60.1701 328.623 59.9128 328.366C59.6555 328.109 59.5109 327.76 59.5109 327.396V316.42C59.5109 316.056 59.6555 315.707 59.9128 315.45C60.1701 315.192 60.5191 315.048 60.8829 315.048H82.8351C83.199 315.048 83.548 315.192 83.8053 315.45C84.0626 315.707 84.2071 316.056 84.2071 316.42V317.792H86.9511C89.8598 317.792 89.6952 316.42 89.6952 316.42C89.6952 316.056 89.8397 315.707 90.097 315.45C90.3543 315.192 90.7033 315.048 91.0672 315.048C91.431 315.048 91.78 315.192 92.0373 315.45C92.2946 315.707 92.4392 316.056 92.4392 316.42ZM64.999 304.072C63.5434 304.072 62.1475 304.65 61.1183 305.679C60.0891 306.708 59.5109 308.104 59.5109 309.56C59.5109 311.015 60.0891 312.411 61.1183 313.44C62.1475 314.47 63.5434 315.048 64.999 315.048C66.4545 315.048 67.8504 314.47 68.8796 313.44C69.9088 312.411 70.487 311.015 70.487 309.56C70.487 308.104 69.9088 306.708 68.8796 305.679C67.8504 304.65 66.4545 304.072 64.999 304.072ZM64.999 312.304C64.2712 312.304 63.5733 312.015 63.0587 311.5C62.544 310.986 62.2549 310.288 62.2549 309.56C62.2549 308.832 62.544 308.134 63.0587 307.619C63.5733 307.105 64.2712 306.816 64.999 306.816C65.7267 306.816 66.4247 307.105 66.9393 307.619C67.4539 308.134 67.743 308.832 67.743 309.56C67.743 310.288 67.4539 310.986 66.9393 311.5C66.4247 312.015 65.7267 312.304 64.999 312.304ZM77.3471 301.328C75.5277 301.328 73.7828 302.05 72.4963 303.337C71.2098 304.623 70.487 306.368 70.487 308.188C70.487 310.007 71.2098 311.752 72.4963 313.039C73.7828 314.325 75.5277 315.048 77.3471 315.048C79.1665 315.048 80.9113 314.325 82.1978 313.039C83.4844 311.752 84.2071 310.007 84.2071 308.188C84.2071 306.368 83.4844 304.623 82.1978 303.337C80.9113 302.05 79.1665 301.328 77.3471 301.328ZM77.3471 312.304C76.2554 312.304 75.2085 311.87 74.4366 311.098C73.6647 310.326 73.231 309.279 73.231 308.188C73.231 307.096 73.6647 306.049 74.4366 305.277C75.2085 304.505 76.2554 304.072 77.3471 304.072C78.4387 304.072 79.4856 304.505 80.2575 305.277C81.0294 306.049 81.4631 307.096 81.4631 308.188C81.4631 309.279 81.0294 310.326 80.2575 311.098C79.4856 311.87 78.4387 312.304 77.3471 312.304Z" fill="#929292"/>
<path d="M111.353 245.707C110.932 245.707 110.571 245.556 110.27 245.255C109.969 244.954 109.819 244.593 109.819 244.173C109.819 243.752 109.969 243.392 110.27 243.09C110.571 242.789 110.932 242.639 111.353 242.639C111.773 242.639 112.134 242.789 112.435 243.09C112.736 243.392 112.887 243.752 112.887 244.173C112.887 244.451 112.816 244.707 112.674 244.94C112.537 245.173 112.353 245.36 112.12 245.502C111.892 245.639 111.637 245.707 111.353 245.707ZM124.235 251.809H122.019L128.428 234.355H130.61L137.019 251.809H134.803L129.587 237.116H129.451L124.235 251.809ZM125.053 244.991H133.985V246.866H125.053V244.991ZM139.465 251.809V238.718H141.408V240.696H141.544C141.783 240.048 142.215 239.522 142.84 239.119C143.465 238.715 144.169 238.514 144.953 238.514C145.101 238.514 145.286 238.517 145.507 238.522C145.729 238.528 145.897 238.536 146.01 238.548V240.593C145.942 240.576 145.786 240.551 145.542 240.517C145.303 240.477 145.05 240.457 144.783 240.457C144.147 240.457 143.578 240.59 143.078 240.857C142.584 241.119 142.192 241.482 141.902 241.948C141.618 242.409 141.476 242.934 141.476 243.525V251.809H139.465ZM156.928 256.718V249.798H156.757C156.61 250.036 156.4 250.338 156.127 250.701C155.854 251.059 155.465 251.38 154.959 251.664C154.453 251.943 153.78 252.082 152.939 252.082C151.848 252.082 150.885 251.806 150.05 251.255C149.215 250.698 148.561 249.914 148.09 248.903C147.618 247.886 147.382 246.684 147.382 245.298C147.382 243.923 147.618 242.73 148.09 241.718C148.561 240.707 149.218 239.926 150.059 239.374C150.9 238.823 151.871 238.548 152.973 238.548C153.826 238.548 154.499 238.69 154.993 238.974C155.493 239.252 155.874 239.571 156.135 239.928C156.402 240.281 156.61 240.571 156.757 240.798H156.996V238.718H158.939V256.718H156.928ZM153.212 250.275C154.019 250.275 154.701 250.065 155.257 249.644C155.814 249.218 156.238 248.63 156.527 247.88C156.817 247.124 156.962 246.252 156.962 245.264C156.962 244.286 156.82 243.431 156.536 242.698C156.252 241.96 155.831 241.386 155.275 240.977C154.718 240.562 154.03 240.355 153.212 240.355C152.36 240.355 151.65 240.573 151.081 241.011C150.519 241.443 150.096 242.031 149.811 242.775C149.533 243.514 149.394 244.343 149.394 245.264C149.394 246.196 149.536 247.042 149.82 247.803C150.11 248.559 150.536 249.161 151.098 249.61C151.667 250.053 152.371 250.275 153.212 250.275ZM170.871 246.457V238.718H172.882V251.809H170.871V249.593H170.735C170.428 250.258 169.951 250.823 169.303 251.289C168.655 251.749 167.837 251.98 166.848 251.98C166.03 251.98 165.303 251.801 164.667 251.443C164.03 251.079 163.53 250.534 163.167 249.806C162.803 249.073 162.621 248.15 162.621 247.036V238.718H164.632V246.9C164.632 247.855 164.9 248.616 165.434 249.184C165.973 249.752 166.661 250.036 167.496 250.036C167.996 250.036 168.505 249.909 169.022 249.653C169.544 249.397 169.982 249.005 170.334 248.477C170.692 247.948 170.871 247.275 170.871 246.457ZM176.566 251.809V238.718H178.578V251.809H176.566ZM177.589 236.536C177.197 236.536 176.859 236.403 176.575 236.136C176.297 235.869 176.157 235.548 176.157 235.173C176.157 234.798 176.297 234.477 176.575 234.21C176.859 233.943 177.197 233.809 177.589 233.809C177.981 233.809 178.316 233.943 178.595 234.21C178.879 234.477 179.021 234.798 179.021 235.173C179.021 235.548 178.879 235.869 178.595 236.136C178.316 236.403 177.981 236.536 177.589 236.536ZM192.966 238.718L188.125 251.809H186.08L181.239 238.718H183.421L187.034 249.15H187.171L190.784 238.718H192.966ZM200.471 252.082C199.289 252.082 198.252 251.801 197.36 251.238C196.473 250.676 195.78 249.889 195.28 248.877C194.786 247.866 194.539 246.684 194.539 245.332C194.539 243.968 194.786 242.778 195.28 241.761C195.78 240.744 196.473 239.954 197.36 239.392C198.252 238.829 199.289 238.548 200.471 238.548C201.652 238.548 202.686 238.829 203.573 239.392C204.465 239.954 205.158 240.744 205.652 241.761C206.152 242.778 206.402 243.968 206.402 245.332C206.402 246.684 206.152 247.866 205.652 248.877C205.158 249.889 204.465 250.676 203.573 251.238C202.686 251.801 201.652 252.082 200.471 252.082ZM200.471 250.275C201.368 250.275 202.107 250.045 202.686 249.585C203.266 249.124 203.695 248.519 203.973 247.769C204.252 247.019 204.391 246.207 204.391 245.332C204.391 244.457 204.252 243.642 203.973 242.886C203.695 242.13 203.266 241.519 202.686 241.053C202.107 240.588 201.368 240.355 200.471 240.355C199.573 240.355 198.834 240.588 198.255 241.053C197.675 241.519 197.246 242.13 196.968 242.886C196.689 243.642 196.55 244.457 196.55 245.332C196.55 246.207 196.689 247.019 196.968 247.769C197.246 248.519 197.675 249.124 198.255 249.585C198.834 250.045 199.573 250.275 200.471 250.275ZM218.745 241.65L216.939 242.161C216.825 241.86 216.657 241.568 216.436 241.284C216.22 240.994 215.924 240.755 215.549 240.568C215.174 240.38 214.694 240.286 214.109 240.286C213.308 240.286 212.64 240.471 212.106 240.84C211.578 241.204 211.314 241.667 211.314 242.23C211.314 242.73 211.495 243.124 211.859 243.414C212.223 243.704 212.791 243.946 213.564 244.139L215.507 244.616C216.677 244.9 217.549 245.335 218.123 245.92C218.697 246.499 218.984 247.247 218.984 248.161C218.984 248.911 218.768 249.582 218.336 250.173C217.91 250.764 217.314 251.23 216.547 251.571C215.779 251.911 214.887 252.082 213.87 252.082C212.535 252.082 211.43 251.792 210.555 251.213C209.68 250.633 209.126 249.786 208.893 248.673L210.802 248.196C210.984 248.9 211.328 249.428 211.833 249.781C212.345 250.133 213.012 250.309 213.836 250.309C214.774 250.309 215.518 250.11 216.069 249.713C216.626 249.309 216.904 248.826 216.904 248.264C216.904 247.809 216.745 247.428 216.427 247.122C216.109 246.809 215.62 246.576 214.961 246.423L212.779 245.911C211.581 245.627 210.7 245.187 210.137 244.59C209.581 243.988 209.302 243.235 209.302 242.332C209.302 241.593 209.51 240.94 209.924 240.372C210.345 239.803 210.916 239.357 211.637 239.034C212.365 238.71 213.189 238.548 214.109 238.548C215.404 238.548 216.422 238.832 217.16 239.4C217.904 239.968 218.433 240.718 218.745 241.65Z" fill="#929292"/>
<path d="M61.0974 235.386C61.0974 234.59 61.4136 233.826 61.9764 233.263C62.5393 232.7 63.3026 232.384 64.0986 232.384H69.9961C70.4901 232.384 70.9765 232.506 71.4121 232.739C71.8477 232.972 72.219 233.309 72.4932 233.72L73.7117 235.551C73.9859 235.961 74.3572 236.298 74.7928 236.531C75.2284 236.764 75.7148 236.886 76.2088 236.886H85.1075C85.9035 236.886 86.6669 237.202 87.2297 237.765C87.7926 238.328 88.1088 239.091 88.1088 239.887V253.393C88.1088 254.189 87.7926 254.953 87.2297 255.515C86.6669 256.078 85.9035 256.394 85.1075 256.394H64.0986C63.3026 256.394 62.5393 256.078 61.9764 255.515C61.4136 254.953 61.0974 254.189 61.0974 253.393V235.386Z" fill="#929292" stroke="#929292" stroke-width="2" stroke-linecap="round" stroke-linejoin="round"/>
<path d="M111.353 173.676C110.932 173.676 110.571 173.526 110.27 173.225C109.969 172.924 109.819 172.563 109.819 172.142C109.819 171.722 109.969 171.361 110.27 171.06C110.571 170.759 110.932 170.608 111.353 170.608C111.773 170.608 112.134 170.759 112.435 171.06C112.736 171.361 112.887 171.722 112.887 172.142C112.887 172.421 112.816 172.676 112.674 172.909C112.537 173.142 112.353 173.33 112.12 173.472C111.892 173.608 111.637 173.676 111.353 173.676ZM137.564 167.779H135.451C135.326 167.171 135.107 166.637 134.794 166.176C134.488 165.716 134.113 165.33 133.669 165.017C133.232 164.699 132.746 164.46 132.212 164.301C131.678 164.142 131.121 164.063 130.542 164.063C129.485 164.063 128.527 164.33 127.669 164.864C126.817 165.398 126.138 166.185 125.632 167.225C125.132 168.264 124.882 169.54 124.882 171.051C124.882 172.563 125.132 173.838 125.632 174.878C126.138 175.918 126.817 176.705 127.669 177.239C128.527 177.773 129.485 178.04 130.542 178.04C131.121 178.04 131.678 177.96 132.212 177.801C132.746 177.642 133.232 177.406 133.669 177.094C134.113 176.776 134.488 176.387 134.794 175.926C135.107 175.46 135.326 174.926 135.451 174.324H137.564C137.405 175.216 137.115 176.014 136.695 176.719C136.274 177.424 135.752 178.023 135.127 178.517C134.502 179.006 133.8 179.378 133.022 179.634C132.249 179.889 131.422 180.017 130.542 180.017C129.053 180.017 127.729 179.654 126.57 178.926C125.411 178.199 124.499 177.165 123.834 175.824C123.169 174.483 122.837 172.892 122.837 171.051C122.837 169.21 123.169 167.62 123.834 166.279C124.499 164.938 125.411 163.904 126.57 163.176C127.729 162.449 129.053 162.085 130.542 162.085C131.422 162.085 132.249 162.213 133.022 162.469C133.8 162.725 134.502 163.1 135.127 163.594C135.752 164.083 136.274 164.679 136.695 165.384C137.115 166.083 137.405 166.881 137.564 167.779ZM146.025 180.051C144.843 180.051 143.806 179.77 142.914 179.208C142.028 178.645 141.335 177.858 140.835 176.847C140.341 175.835 140.093 174.654 140.093 173.301C140.093 171.938 140.341 170.747 140.835 169.73C141.335 168.713 142.028 167.924 142.914 167.361C143.806 166.799 144.843 166.517 146.025 166.517C147.207 166.517 148.241 166.799 149.127 167.361C150.02 167.924 150.713 168.713 151.207 169.73C151.707 170.747 151.957 171.938 151.957 173.301C151.957 174.654 151.707 175.835 151.207 176.847C150.713 177.858 150.02 178.645 149.127 179.208C148.241 179.77 147.207 180.051 146.025 180.051ZM146.025 178.245C146.923 178.245 147.662 178.014 148.241 177.554C148.821 177.094 149.25 176.489 149.528 175.739C149.806 174.989 149.946 174.176 149.946 173.301C149.946 172.426 149.806 171.611 149.528 170.855C149.25 170.1 148.821 169.489 148.241 169.023C147.662 168.557 146.923 168.324 146.025 168.324C145.127 168.324 144.389 168.557 143.809 169.023C143.23 169.489 142.801 170.1 142.522 170.855C142.244 171.611 142.105 172.426 142.105 173.301C142.105 174.176 142.244 174.989 142.522 175.739C142.801 176.489 143.23 177.094 143.809 177.554C144.389 178.014 145.127 178.245 146.025 178.245ZM145.105 164.915L147.184 160.96H149.537L146.877 164.915H145.105ZM159.971 180.051C158.88 180.051 157.917 179.776 157.081 179.225C156.246 178.668 155.593 177.884 155.121 176.872C154.649 175.855 154.414 174.654 154.414 173.267C154.414 171.892 154.649 170.699 155.121 169.688C155.593 168.676 156.249 167.895 157.09 167.344C157.931 166.793 158.902 166.517 160.005 166.517C160.857 166.517 161.53 166.659 162.024 166.943C162.524 167.222 162.905 167.54 163.167 167.898C163.434 168.25 163.641 168.54 163.789 168.767H163.959V162.324H165.971V179.779H164.027V177.767H163.789C163.641 178.006 163.431 178.307 163.158 178.671C162.885 179.029 162.496 179.35 161.99 179.634C161.485 179.912 160.811 180.051 159.971 180.051ZM160.243 178.245C161.05 178.245 161.732 178.034 162.289 177.614C162.846 177.188 163.269 176.6 163.559 175.85C163.848 175.094 163.993 174.222 163.993 173.233C163.993 172.256 163.851 171.401 163.567 170.668C163.283 169.929 162.863 169.355 162.306 168.946C161.749 168.531 161.061 168.324 160.243 168.324C159.391 168.324 158.681 168.543 158.113 168.98C157.55 169.412 157.127 170 156.843 170.745C156.564 171.483 156.425 172.313 156.425 173.233C156.425 174.165 156.567 175.012 156.851 175.773C157.141 176.529 157.567 177.131 158.13 177.58C158.698 178.023 159.402 178.245 160.243 178.245ZM169.934 179.779V166.688H171.945V179.779H169.934ZM170.956 164.506C170.564 164.506 170.226 164.372 169.942 164.105C169.664 163.838 169.524 163.517 169.524 163.142C169.524 162.767 169.664 162.446 169.942 162.179C170.226 161.912 170.564 161.779 170.956 161.779C171.348 161.779 171.684 161.912 171.962 162.179C172.246 162.446 172.388 162.767 172.388 163.142C172.388 163.517 172.246 163.838 171.962 164.105C171.684 164.372 171.348 164.506 170.956 164.506ZM180.913 184.96C179.941 184.96 179.106 184.835 178.407 184.585C177.708 184.341 177.126 184.017 176.66 183.614C176.2 183.216 175.833 182.79 175.561 182.335L177.163 181.21C177.345 181.449 177.575 181.722 177.853 182.029C178.132 182.341 178.512 182.611 178.995 182.838C179.484 183.071 180.123 183.188 180.913 183.188C181.97 183.188 182.842 182.932 183.529 182.421C184.217 181.909 184.561 181.108 184.561 180.017V177.358H184.39C184.243 177.597 184.032 177.892 183.76 178.245C183.493 178.591 183.106 178.901 182.6 179.174C182.1 179.441 181.424 179.574 180.572 179.574C179.515 179.574 178.566 179.324 177.725 178.824C176.89 178.324 176.228 177.597 175.74 176.642C175.257 175.688 175.015 174.529 175.015 173.165C175.015 171.824 175.251 170.656 175.723 169.662C176.194 168.662 176.85 167.889 177.691 167.344C178.532 166.793 179.504 166.517 180.606 166.517C181.458 166.517 182.135 166.659 182.635 166.943C183.14 167.222 183.527 167.54 183.794 167.898C184.066 168.25 184.277 168.54 184.424 168.767H184.629V166.688H186.572V180.154C186.572 181.279 186.316 182.193 185.805 182.898C185.299 183.608 184.618 184.128 183.76 184.458C182.907 184.793 181.958 184.96 180.913 184.96ZM180.845 177.767C181.652 177.767 182.333 177.583 182.89 177.213C183.447 176.844 183.87 176.313 184.16 175.62C184.45 174.926 184.595 174.097 184.595 173.131C184.595 172.188 184.453 171.355 184.169 170.634C183.885 169.912 183.464 169.347 182.907 168.938C182.35 168.529 181.663 168.324 180.845 168.324C179.993 168.324 179.282 168.54 178.714 168.972C178.152 169.404 177.728 169.983 177.444 170.71C177.166 171.438 177.027 172.245 177.027 173.131C177.027 174.04 177.169 174.844 177.453 175.543C177.743 176.236 178.169 176.781 178.731 177.179C179.299 177.571 180.004 177.767 180.845 177.767ZM195.572 180.051C194.39 180.051 193.353 179.77 192.461 179.208C191.575 178.645 190.882 177.858 190.382 176.847C189.887 175.835 189.64 174.654 189.64 173.301C189.64 171.938 189.887 170.747 190.382 169.73C190.882 168.713 191.575 167.924 192.461 167.361C193.353 166.799 194.39 166.517 195.572 166.517C196.754 166.517 197.788 166.799 198.674 167.361C199.566 167.924 200.26 168.713 200.754 169.73C201.254 170.747 201.504 171.938 201.504 173.301C201.504 174.654 201.254 175.835 200.754 176.847C200.26 177.858 199.566 178.645 198.674 179.208C197.788 179.77 196.754 180.051 195.572 180.051ZM195.572 178.245C196.47 178.245 197.208 178.014 197.788 177.554C198.368 177.094 198.797 176.489 199.075 175.739C199.353 174.989 199.493 174.176 199.493 173.301C199.493 172.426 199.353 171.611 199.075 170.855C198.797 170.1 198.368 169.489 197.788 169.023C197.208 168.557 196.47 168.324 195.572 168.324C194.674 168.324 193.936 168.557 193.356 169.023C192.777 169.489 192.348 170.1 192.069 170.855C191.791 171.611 191.652 172.426 191.652 173.301C191.652 174.176 191.791 174.989 192.069 175.739C192.348 176.489 192.777 177.094 193.356 177.554C193.936 178.014 194.674 178.245 195.572 178.245ZM213.847 169.62L212.04 170.131C211.926 169.83 211.759 169.537 211.537 169.253C211.321 168.963 211.026 168.725 210.651 168.537C210.276 168.35 209.796 168.256 209.211 168.256C208.409 168.256 207.742 168.441 207.208 168.81C206.679 169.174 206.415 169.637 206.415 170.199C206.415 170.699 206.597 171.094 206.961 171.384C207.324 171.674 207.892 171.915 208.665 172.108L210.608 172.585C211.779 172.87 212.651 173.304 213.225 173.889C213.799 174.469 214.086 175.216 214.086 176.131C214.086 176.881 213.87 177.551 213.438 178.142C213.012 178.733 212.415 179.199 211.648 179.54C210.881 179.881 209.989 180.051 208.972 180.051C207.637 180.051 206.532 179.762 205.657 179.182C204.782 178.603 204.228 177.756 203.995 176.642L205.904 176.165C206.086 176.87 206.429 177.398 206.935 177.75C207.446 178.103 208.114 178.279 208.938 178.279C209.875 178.279 210.62 178.08 211.171 177.682C211.728 177.279 212.006 176.796 212.006 176.233C212.006 175.779 211.847 175.398 211.529 175.091C211.211 174.779 210.722 174.546 210.063 174.392L207.881 173.881C206.682 173.597 205.801 173.156 205.239 172.56C204.682 171.958 204.404 171.205 204.404 170.301C204.404 169.563 204.611 168.909 205.026 168.341C205.446 167.773 206.017 167.327 206.739 167.003C207.466 166.679 208.29 166.517 209.211 166.517C210.506 166.517 211.523 166.801 212.262 167.37C213.006 167.938 213.534 168.688 213.847 169.62Z" fill="#929292"/>
<path d="M68.9435 179.047L62.255 172.359L68.9435 165.67C69.1024 165.513 69.2285 165.326 69.3146 165.12C69.4007 164.914 69.445 164.693 69.445 164.47C69.445 164.246 69.4007 164.025 69.3146 163.819C69.2285 163.613 69.1024 163.426 68.9435 163.269C68.7865 163.11 68.5996 162.984 68.3935 162.898C68.1875 162.812 67.9663 162.768 67.743 162.768C67.5197 162.768 67.2985 162.812 67.0925 162.898C66.8864 162.984 66.6995 163.11 66.5425 163.269L58.6706 171.141C58.5116 171.3 58.3855 171.488 58.2994 171.696C58.2133 171.903 58.169 172.126 58.169 172.35C58.169 172.575 58.2133 172.797 58.2994 173.005C58.3855 173.212 58.5116 173.401 58.6706 173.559L66.5425 181.448C67.2113 182.117 68.2747 182.117 68.9435 181.448C69.1024 181.291 69.2285 181.104 69.3146 180.898C69.4007 180.692 69.445 180.471 69.445 180.248C69.445 180.024 69.4007 179.803 69.3146 179.597C69.2285 179.391 69.1024 179.204 68.9435 179.047ZM80.2626 179.047L86.9511 172.359L80.2626 165.67C80.1037 165.513 79.9776 165.326 79.8915 165.12C79.8054 164.914 79.7611 164.693 79.7611 164.47C79.7611 164.246 79.8054 164.025 79.8915 163.819C79.9776 163.613 80.1037 163.426 80.2626 163.269C80.4196 163.11 80.6065 162.984 80.8126 162.898C81.0186 162.812 81.2398 162.768 81.4631 162.768C81.6864 162.768 81.9076 162.812 82.1136 162.898C82.3197 162.984 82.5066 163.11 82.6636 163.269L90.5355 171.141C91.2044 171.81 91.2044 172.89 90.5355 173.559L82.6636 181.448C82.5066 181.607 82.3197 181.733 82.1136 181.819C81.9076 181.906 81.6864 181.95 81.4631 181.95C81.2398 181.95 81.0186 181.906 80.8126 181.819C80.6065 181.733 80.4196 181.607 80.2626 181.448C80.1037 181.291 79.9776 181.104 79.8915 180.898C79.8054 180.692 79.7611 180.471 79.7611 180.248C79.7611 180.024 79.8054 179.803 79.8915 179.597C79.9776 179.391 80.1037 179.204 80.2626 179.047Z" fill="#929292"/>
<rect x="38.5878" y="56.5954" width="272.687" height="64.313" rx="18" fill="#1A1A1A"/>
<path d="M111.353 88.7832C110.932 88.7832 110.571 88.6327 110.27 88.3315C109.969 88.0304 109.819 87.6696 109.819 87.2491C109.819 86.8287 109.969 86.4679 110.27 86.1667C110.571 85.8656 110.932 85.715 111.353 85.715C111.773 85.715 112.134 85.8656 112.435 86.1667C112.736 86.4679 112.887 86.8287 112.887 87.2491C112.887 87.5275 112.816 87.7832 112.674 88.0162C112.537 88.2491 112.353 88.4366 112.12 88.5787C111.892 88.715 111.637 88.7832 111.353 88.7832ZM123.519 94.8855V77.431H129.621C130.837 77.431 131.84 77.6412 132.63 78.0616C133.419 78.4764 134.007 79.0361 134.394 79.7406C134.78 80.4395 134.973 81.215 134.973 82.0673C134.973 82.8173 134.84 83.4366 134.573 83.9253C134.311 84.4139 133.965 84.8003 133.533 85.0844C133.107 85.3685 132.644 85.5787 132.144 85.715V85.8855C132.678 85.9196 133.215 86.1071 133.755 86.448C134.294 86.7889 134.746 87.2775 135.11 87.9139C135.473 88.5503 135.655 89.3287 135.655 90.2491C135.655 91.1241 135.456 91.9111 135.059 92.6099C134.661 93.3088 134.033 93.8628 133.175 94.2719C132.317 94.681 131.201 94.8855 129.826 94.8855H123.519ZM125.632 93.0105H129.826C131.206 93.0105 132.186 92.7435 132.766 92.2094C133.351 91.6696 133.644 91.0162 133.644 90.2491C133.644 89.6582 133.493 89.1128 133.192 88.6128C132.891 88.1071 132.462 87.7037 131.905 87.4025C131.348 87.0957 130.689 86.9423 129.928 86.9423H125.632V93.0105ZM125.632 85.1014H129.553C130.189 85.1014 130.763 84.9764 131.275 84.7264C131.792 84.4764 132.201 84.1241 132.502 83.6696C132.809 83.215 132.962 82.681 132.962 82.0673C132.962 81.3003 132.695 80.6497 132.161 80.1156C131.627 79.5758 130.78 79.306 129.621 79.306H125.632V85.1014ZM144.174 95.1582C142.992 95.1582 141.955 94.877 141.063 94.3145C140.177 93.752 139.483 92.965 138.983 91.9537C138.489 90.9423 138.242 89.7605 138.242 88.4082C138.242 87.0446 138.489 85.8542 138.983 84.8372C139.483 83.8202 140.177 83.0304 141.063 82.4679C141.955 81.9054 142.992 81.6241 144.174 81.6241C145.355 81.6241 146.39 81.9054 147.276 82.4679C148.168 83.0304 148.861 83.8202 149.355 84.8372C149.855 85.8542 150.105 87.0446 150.105 88.4082C150.105 89.7605 149.855 90.9423 149.355 91.9537C148.861 92.965 148.168 93.752 147.276 94.3145C146.39 94.877 145.355 95.1582 144.174 95.1582ZM144.174 93.3514C145.071 93.3514 145.81 93.1213 146.39 92.6611C146.969 92.2008 147.398 91.5957 147.677 90.8457C147.955 90.0957 148.094 89.2832 148.094 88.4082C148.094 87.5332 147.955 86.7179 147.677 85.9622C147.398 85.2065 146.969 84.5957 146.39 84.1298C145.81 83.6639 145.071 83.431 144.174 83.431C143.276 83.431 142.537 83.6639 141.958 84.1298C141.378 84.5957 140.949 85.2065 140.671 85.9622C140.392 86.7179 140.253 87.5332 140.253 88.4082C140.253 89.2832 140.392 90.0957 140.671 90.8457C140.949 91.5957 141.378 92.2008 141.958 92.6611C142.537 93.1213 143.276 93.3514 144.174 93.3514ZM158.869 81.7946V83.4991H152.085V81.7946H158.869ZM154.062 78.6582H156.074V91.1355C156.074 91.7037 156.156 92.1298 156.321 92.4139C156.491 92.6923 156.707 92.8798 156.968 92.9764C157.235 93.0673 157.517 93.1128 157.812 93.1128C158.034 93.1128 158.216 93.1014 158.358 93.0787C158.5 93.0503 158.613 93.0275 158.699 93.0105L159.108 94.8173C158.971 94.8685 158.781 94.9196 158.537 94.9707C158.292 95.0275 157.983 95.056 157.608 95.056C157.039 95.056 156.483 94.9338 155.937 94.6895C155.397 94.4452 154.949 94.073 154.591 93.573C154.238 93.073 154.062 92.4423 154.062 91.681V78.6582ZM170.933 84.7264L169.126 85.2378C169.012 84.9366 168.845 84.644 168.623 84.3599C168.407 84.0702 168.112 83.8315 167.737 83.644C167.362 83.4565 166.882 83.3628 166.297 83.3628C165.495 83.3628 164.828 83.5474 164.294 83.9167C163.765 84.2804 163.501 84.7435 163.501 85.306C163.501 85.806 163.683 86.2008 164.047 86.4906C164.41 86.7804 164.978 87.0219 165.751 87.215L167.694 87.6923C168.865 87.9764 169.737 88.4111 170.311 88.9963C170.885 89.5758 171.172 90.323 171.172 91.2378C171.172 91.9878 170.956 92.6582 170.524 93.2491C170.098 93.84 169.501 94.306 168.734 94.6469C167.967 94.9878 167.075 95.1582 166.058 95.1582C164.723 95.1582 163.618 94.8685 162.743 94.2889C161.868 93.7094 161.314 92.8628 161.081 91.7491L162.99 91.2719C163.172 91.9764 163.515 92.5048 164.021 92.8571C164.532 93.2094 165.2 93.3855 166.024 93.3855C166.961 93.3855 167.706 93.1866 168.257 92.7889C168.814 92.3855 169.092 91.9025 169.092 91.34C169.092 90.8855 168.933 90.5048 168.615 90.198C168.297 89.8855 167.808 89.6525 167.149 89.4991L164.967 88.9878C163.768 88.7037 162.887 88.2633 162.325 87.6667C161.768 87.0645 161.49 86.3116 161.49 85.4082C161.49 84.6696 161.697 84.0162 162.112 83.448C162.532 82.8798 163.103 82.4338 163.825 82.1099C164.552 81.7861 165.376 81.6241 166.297 81.6241C167.592 81.6241 168.609 81.9082 169.348 82.4764C170.092 83.0446 170.62 83.7946 170.933 84.7264Z" fill="white"/>
<path d="M86.1794 74.6031H75.8893V69.458C75.8893 69.1169 75.7538 68.7897 75.5126 68.5485C75.2714 68.3073 74.9442 68.1718 74.6031 68.1718C74.2619 68.1718 73.9348 68.3073 73.6935 68.5485C73.4523 68.7897 73.3168 69.1169 73.3168 69.458V74.6031H63.0267C61.6622 74.6031 60.3535 75.1451 59.3886 76.11C58.4237 77.0749 57.8817 78.3835 57.8817 79.7481V97.7557C57.8817 99.1203 58.4237 100.429 59.3886 101.394C60.3535 102.359 61.6622 102.901 63.0267 102.901H86.1794C87.5439 102.901 88.8526 102.359 89.8175 101.394C90.7824 100.429 91.3244 99.1203 91.3244 97.7557V79.7481C91.3244 78.3835 90.7824 77.0749 89.8175 76.11C88.8526 75.1451 87.5439 74.6031 86.1794 74.6031ZM81.6775 82.3206C82.0591 82.3206 82.4321 82.4338 82.7494 82.6458C83.0667 82.8578 83.314 83.1591 83.46 83.5117C83.606 83.8642 83.6442 84.2521 83.5698 84.6264C83.4954 85.0007 83.3116 85.3445 83.0418 85.6143C82.7719 85.8841 82.4282 86.0679 82.0539 86.1423C81.6796 86.2168 81.2917 86.1786 80.9391 86.0325C80.5866 85.8865 80.2853 85.6392 80.0733 85.3219C79.8613 85.0046 79.7481 84.6316 79.7481 84.25C79.7481 83.7383 79.9514 83.2475 80.3132 82.8857C80.675 82.5239 81.1658 82.3206 81.6775 82.3206ZM69.458 96.4695H66.8855C66.2032 96.4695 65.5489 96.1984 65.0665 95.716C64.584 95.2335 64.313 94.5792 64.313 93.8969C64.313 93.2147 64.584 92.5603 65.0665 92.0779C65.5489 91.5955 66.2032 91.3244 66.8855 91.3244H69.458V96.4695ZM67.5286 86.1794C67.147 86.1794 66.774 86.0662 66.4567 85.8542C66.1394 85.6422 65.8921 85.3409 65.7461 84.9883C65.6001 84.6358 65.5619 84.2479 65.6363 83.8736C65.7108 83.4993 65.8945 83.1555 66.1643 82.8857C66.4342 82.6159 66.778 82.4321 67.1522 82.3577C67.5265 82.2832 67.9144 82.3214 68.267 82.4675C68.6195 82.6135 68.9209 82.8608 69.1329 83.1781C69.3449 83.4954 69.458 83.8684 69.458 84.25C69.458 84.7617 69.2547 85.2525 68.8929 85.6143C68.5311 85.9761 68.0403 86.1794 67.5286 86.1794ZM77.1756 96.4695H72.0305V91.3244H77.1756V96.4695ZM82.3206 96.4695H79.7481V91.3244H82.3206C83.0029 91.3244 83.6572 91.5955 84.1397 92.0779C84.6221 92.5603 84.8931 93.2147 84.8931 93.8969C84.8931 94.5792 84.6221 95.2335 84.1397 95.716C83.6572 96.1984 83.0029 96.4695 82.3206 96.4695Z" fill="white"/>
<g clip-path="url(#clip0_2003_42)">
<path d="M27.0844 22.097C27.4735 20.9297 29.1219 20.9297 29.511 22.097L31.7925 28.9486C32.2947 30.4547 33.1408 31.8232 34.2637 32.9455C35.3867 34.0679 36.7556 34.9132 38.262 35.4146L45.1101 37.6961C46.2774 38.0852 46.2774 39.7335 45.1101 40.1226L38.2585 42.4041C36.7523 42.9063 35.3839 43.7524 34.2615 44.8754C33.1392 45.9983 32.2938 47.3673 31.7925 48.8737L29.511 55.7217C29.4271 55.9773 29.2646 56.1999 29.0467 56.3577C28.8289 56.5155 28.5667 56.6005 28.2977 56.6005C28.0287 56.6005 27.7665 56.5155 27.5487 56.3577C27.3308 56.1999 27.1683 55.9773 27.0844 55.7217L24.8029 48.8702C24.3011 47.3644 23.4555 45.9962 22.3332 44.8738C21.2109 43.7515 19.8427 42.906 18.3369 42.4041L11.4853 40.1226C11.2297 40.0387 11.0071 39.8763 10.8493 39.6584C10.6915 39.4405 10.6066 39.1784 10.6066 38.9094C10.6066 38.6403 10.6915 38.3782 10.8493 38.1603C11.0071 37.9425 11.2297 37.78 11.4853 37.6961L18.3369 35.4146C19.8427 34.9128 21.2109 34.0672 22.3332 32.9449C23.4555 31.8226 24.3011 30.4543 24.8029 28.9486L27.0844 22.097ZM13.4202 4.06073C13.4709 3.90755 13.5686 3.77425 13.6994 3.67977C13.8302 3.5853 13.9875 3.53444 14.1488 3.53444C14.3102 3.53444 14.4675 3.5853 14.5983 3.67977C14.7291 3.77425 14.8268 3.90755 14.8775 4.06073L16.2464 8.17098C16.8584 10.0033 18.2945 11.4394 20.1267 12.0513L24.237 13.4202C24.3902 13.4709 24.5235 13.5686 24.6179 13.6994C24.7124 13.8303 24.7633 13.9875 24.7633 14.1489C24.7633 14.3102 24.7124 14.4675 24.6179 14.5983C24.5235 14.7291 24.3902 14.8268 24.237 14.8775L20.1267 16.2464C19.2225 16.5465 18.4009 17.0536 17.7272 17.7273C17.0536 18.4009 16.5465 19.2226 16.2464 20.1268L14.8775 24.237C14.8268 24.3902 14.7291 24.5235 14.5983 24.618C14.4675 24.7124 14.3102 24.7633 14.1488 24.7633C13.9875 24.7633 13.8302 24.7124 13.6994 24.618C13.5686 24.5235 13.4709 24.3902 13.4202 24.237L12.0513 20.1268C11.7512 19.2226 11.2441 18.4009 10.5705 17.7273C9.89681 17.0536 9.07516 16.5465 8.17096 16.2464L4.06072 14.8775C3.90753 14.8268 3.77423 14.7291 3.67976 14.5983C3.58528 14.4675 3.53442 14.3102 3.53442 14.1489C3.53442 13.9875 3.58528 13.8303 3.67976 13.6994C3.77423 13.5686 3.90753 13.4709 4.06072 13.4202L8.17096 12.0513C9.07516 11.7512 9.89681 11.2441 10.5705 10.5705C11.2441 9.89683 11.7512 9.07518 12.0513 8.17098L13.4202 4.06073ZM38.4247 0.350198C38.4597 0.24948 38.5251 0.162145 38.6119 0.100335C38.6988 0.0385242 38.8027 0.00531006 38.9093 0.00531006C39.0159 0.00531006 39.1199 0.0385242 39.2067 0.100335C39.2936 0.162145 39.359 0.24948 39.3939 0.350198L40.3065 3.088C40.7133 4.31188 41.6719 5.27046 42.8958 5.67724L45.6336 6.58984C45.7343 6.62476 45.8216 6.69019 45.8835 6.77704C45.9453 6.86389 45.9785 6.96784 45.9785 7.07444C45.9785 7.18104 45.9453 7.28499 45.8835 7.37184C45.8216 7.45869 45.7343 7.52412 45.6336 7.55904L42.8958 8.47164C42.2932 8.67326 41.7456 9.01209 41.2963 9.46141C40.847 9.91073 40.5082 10.4583 40.3065 11.0609L39.3939 13.7987C39.359 13.8994 39.2936 13.9867 39.2067 14.0485C39.1199 14.1104 39.0159 14.1436 38.9093 14.1436C38.8027 14.1436 38.6988 14.1104 38.6119 14.0485C38.5251 13.9867 38.4597 13.8994 38.4247 13.7987L37.5121 11.0609C37.3105 10.4583 36.9717 9.91073 36.5224 9.46141C36.0731 9.01209 35.5255 8.67326 34.9229 8.47164L32.1886 7.55904C32.0879 7.52412 32.0006 7.45869 31.9388 7.37184C31.877 7.28499 31.8438 7.18104 31.8438 7.07444C31.8438 6.96784 31.877 6.86389 31.9388 6.77704C32.0006 6.69019 32.0879 6.62476 32.1886 6.58984L34.9264 5.67724C36.1503 5.27046 37.1089 4.31188 37.5157 3.088L38.4247 0.350198Z" fill="#FCD126"/>
</g>
<path d="M334.427 362.725C334.432 363.253 334.271 363.769 333.969 364.201C333.666 364.633 333.236 364.96 332.739 365.137L322.539 368.846L318.832 379.045C318.649 379.537 318.32 379.962 317.889 380.261C317.458 380.561 316.945 380.722 316.42 380.722C315.895 380.722 315.382 380.561 314.951 380.261C314.52 379.962 314.191 379.537 314.008 379.045L310.3 368.845L300.1 365.137C299.608 364.954 299.184 364.625 298.884 364.194C298.584 363.763 298.423 363.25 298.423 362.725C298.423 362.2 298.584 361.687 298.884 361.256C299.184 360.825 299.608 360.496 300.1 360.313L310.3 356.606L314.008 346.406C314.191 345.913 314.52 345.489 314.951 345.189C315.382 344.889 315.895 344.728 316.42 344.728C316.945 344.728 317.458 344.889 317.889 345.189C318.32 345.489 318.649 345.913 318.832 346.406L322.541 356.606L332.739 360.313C333.236 360.49 333.666 360.817 333.969 361.25C334.271 361.682 334.432 362.198 334.427 362.725Z" fill="#FCD126"/>
<defs>
<clipPath id="clip0_2003_42">
<rect width="56.5954" height="56.5954" fill="white"/>
</clipPath>
</defs>
</svg>
